<?xml version="1.0" encoding="UTF-8"?>
<svg width="512px" height="256px" viewBox="0 0 512 256" version="1.1" xmlns="http://www.w3.org/2000/svg" xmlns:xlink="http://www.w3.org/1999/xlink">
    <title>Private Relay Logo / 512x256 / dark</title>
    <g id="Private-Relay-Logo-/-512x256-/-dark" stroke="none" stroke-width="1" fill="none" fill-rule="evenodd">
        <rect fill="#111111" x="0" y="0" width="512" height="256"></rect>
        <path d="M282.325128,82 L285.653333,84.4906565 L280.410256,92.0510453 L314,92.0510453 L314,96.3122198 L280.661538,96.3122198 L285.653333,103.509344 L282.325128,106 L274,94.0015979 L282.325128,82 Z M206.325128,82 L209.653333,84.4906565 L204.410256,92.0510453 L238,92.0510453 L238,96.3122198 L204.661538,96.3122198 L209.653333,103.509344 L206.325128,106 L198,94.0015979 L206.325128,82 Z M258,122 L254,122 L254,66 L258,66 L258,122 Z" id="Shape" fill="#FFFFFF" fill-rule="nonzero" transform="translate(256.000000, 94.000000) scale(-1, 1) translate(-256.000000, -94.000000) "></path>
        <text id="Private-Relay" font-family="Inter-ExtraBold, Inter" font-size="50" font-weight="600" fill="#FFFFFF">
            <tspan x="95.2045455" y="178">Private Relay</tspan>
        </text>
    </g>
</svg>