<?xml version="1.0" encoding="UTF-8"?>
<svg width="1280px" height="640px" viewBox="0 0 1280 640" version="1.1" xmlns="http://www.w3.org/2000/svg" xmlns:xlink="http://www.w3.org/1999/xlink">
    <title>Private Relay Logo / 1280×640 / dark</title>
    <g id="Private-Relay-Logo-/-1280×640-/-dark" stroke="none" stroke-width="1" fill="none" fill-rule="evenodd">
        <rect fill="#111111" x="0" y="0" width="1280" height="640"></rect>
        <path d="M447.249989,403 L447.249989,388.545468 L454.886346,388.545468 C465.545426,388.545468 472.204511,382.227293 472.204511,372.568211 C472.204511,363.000038 465.68179,356.45459 455.227254,356.45459 L436,356.45459 L436,403 L447.249989,403 Z M452.795439,379.68184 L447.249989,379.68184 L447.249989,365.522763 L452.795439,365.522763 C457.840888,365.522763 460.545431,368.250033 460.545431,372.568211 C460.545431,376.863661 457.840888,379.68184 452.795439,379.68184 Z M488.840898,403 L488.840898,384.045473 C488.840898,379.886386 491.795441,377.090934 495.77271,377.090934 C497.090891,377.090934 499.068161,377.318206 500.136342,377.681842 L500.136342,368.022761 C499.204525,367.772761 498.045435,367.61367 497.022709,367.61367 C493.204531,367.61367 490.159079,369.840941 488.886353,374.454573 L488.522717,374.454573 L488.522717,368.090942 L477.727273,368.090942 L477.727273,403 L488.840898,403 Z M510.249995,364.022764 C513.409083,364.022764 515.954535,361.636403 515.954535,358.704588 C515.954535,355.772772 513.409083,353.409138 510.249995,353.409138 C507.113634,353.409138 504.545455,355.772772 504.545455,358.704588 C504.545455,361.636403 507.113634,364.022764 510.249995,364.022764 Z M515.795444,403 L515.795444,368.090942 L504.681818,368.090942 L504.681818,403 L515.795444,403 Z M544.727252,403 L556.704513,368.090942 L544.999979,368.090942 L538.54544,392.136374 L538.181804,392.136374 L531.749992,368.090942 L520.045457,368.090942 L531.999991,403 L544.727252,403 Z M569.8409,403.590909 C574.704531,403.590909 578.068165,401.704547 579.977254,398.136368 L580.249981,398.136368 L580.249981,403 L590.704516,403 L590.704516,379.27275 C590.704516,371.886393 584.136341,367.636397 575.249985,367.636397 C565.863638,367.636397 560.545454,372.363666 559.659091,378.727296 L569.909081,379.090932 C570.386354,376.863661 572.227261,375.500026 575.159076,375.500026 C577.886347,375.500026 579.613618,376.818207 579.613618,379.159114 L579.613618,379.27275 C579.613618,381.409111 577.295438,381.863657 571.340898,382.386383 C564.272723,382.977292 558.363638,385.590926 558.363638,393.318191 C558.363638,400.227275 563.159088,403.590909 569.8409,403.590909 Z M573.272715,396.318188 C570.704535,396.318188 568.886355,395.090917 568.886355,392.772742 C568.886355,390.522739 570.659081,389.159104 573.818169,388.681832 C575.886355,388.386378 578.431801,387.931833 579.681799,387.272742 L579.681799,390.590921 C579.681799,394.000009 576.818166,396.318188 573.272715,396.318188 Z M612.13635,403.5 C614.818165,403.363636 616.749982,402.818182 617.818162,402.5 L616.136346,394.477281 C615.659074,394.590917 614.545438,394.81819 613.70453,394.81819 C611.909077,394.81819 610.886351,394.090918 610.886351,392.022738 L610.886351,376.272753 L617.181799,376.272753 L617.181799,368.090942 L610.886351,368.090942 L610.886351,359.727314 L599.772725,359.727314 L599.772725,368.090942 L595.159093,368.090942 L595.159093,376.272753 L599.772725,376.272753 L599.772725,393.250009 C599.704543,400.318184 604.295448,403.863636 612.13635,403.5 Z M638.818166,403.65909 C647.977248,403.65909 653.99997,399.227276 655.272696,392.363647 L645.06816,392.068192 C644.204525,394.386372 641.9318,395.636371 639.022712,395.636371 C634.749988,395.636371 632.113627,392.795464 632.113627,388.522741 L632.113627,388.227287 L655.386332,388.227287 L655.386332,385.454562 C655.386332,373.954573 648.386339,367.636397 638.477257,367.636397 C627.931813,367.636397 621.159092,374.863663 621.159092,385.681835 C621.159092,396.863642 627.840904,403.65909 638.818166,403.65909 Z M645.045433,381.772748 L632.113627,381.772748 C632.272718,378.295478 635.022715,375.659117 638.70453,375.659117 C642.363617,375.659117 644.999979,378.204569 645.045433,381.772748 Z M686.113626,403 L686.113626,387.068197 L691.886347,387.068197 L700.386339,403 L712.659055,403 L702.999973,385.272744 C708.113605,382.954565 711.068147,378.386387 711.068147,371.954575 C711.068147,362.386402 704.545426,356.45459 694.090891,356.45459 L674.863636,356.45459 L674.863636,403 L686.113626,403 Z M691.659075,378.204569 L686.113626,378.204569 L686.113626,365.522763 L691.659075,365.522763 C696.704525,365.522763 699.409068,367.636397 699.409068,371.954575 C699.409068,376.272753 696.704525,378.204569 691.659075,378.204569 Z M732.886348,403.65909 C742.04543,403.65909 748.068152,399.227276 749.340878,392.363647 L739.136342,392.068192 C738.272707,394.386372 735.999981,395.636371 733.090893,395.636371 C728.81817,395.636371 726.181809,392.795464 726.181809,388.522741 L726.181809,388.227287 L749.454514,388.227287 L749.454514,385.454562 C749.454514,373.954573 742.454521,367.636397 732.545439,367.636397 C721.999995,367.636397 715.227274,374.863663 715.227274,385.681835 C715.227274,396.863642 721.909086,403.65909 732.886348,403.65909 Z M739.113615,381.772748 L726.181809,381.772748 C726.3409,378.295478 729.090897,375.659117 732.772712,375.659117 C736.431799,375.659117 739.06816,378.204569 739.113615,381.772748 Z M766.272717,403 L766.272717,356.45459 L755.159091,356.45459 L755.159091,403 L766.272717,403 Z M783.159082,403.590909 C788.022713,403.590909 791.386346,401.704547 793.295435,398.136368 L793.568163,398.136368 L793.568163,403 L804.022698,403 L804.022698,379.27275 C804.022698,371.886393 797.454522,367.636397 788.568167,367.636397 C779.18182,367.636397 773.863636,372.363666 772.977273,378.727296 L783.227263,379.090932 C783.704536,376.863661 785.545443,375.500026 788.477258,375.500026 C791.204528,375.500026 792.931799,376.818207 792.931799,379.159114 L792.931799,379.27275 C792.931799,381.409111 790.61362,381.863657 784.65908,382.386383 C777.590905,382.977292 771.68182,385.590926 771.68182,393.318191 C771.68182,400.227275 776.47727,403.590909 783.159082,403.590909 Z M786.590896,396.318188 C784.022717,396.318188 782.204537,395.090917 782.204537,392.772742 C782.204537,390.522739 783.977263,389.159104 787.13635,388.681832 C789.204537,388.386378 791.749982,387.931833 792.999981,387.272742 L792.999981,390.590921 C792.999981,394.000009 790.136348,396.318188 786.590896,396.318188 Z M816.318175,416.090897 C824.318168,416.090897 828.295437,412.045446 830.227253,406.340906 L843.386331,368.11367 L831.681797,368.090942 L825.159076,393.00001 L824.79544,393.00001 L818.363628,368.090942 L806.727275,368.090942 L819.136354,404.272726 L818.704537,405.31818 C817.636356,407.931813 815.227275,407.977268 811.954543,406.909087 L809.5,414.977261 C811.181817,415.659079 813.659087,416.090897 816.318175,416.090897 Z" id="Private-Relay" fill="#FFFFFF" fill-rule="nonzero"></path>
        <path d="M598.631732,256 L592.205989,260.520994 L602.328761,274.244472 L537.477276,274.244472 L537.477276,281.979277 L601.843613,281.979277 L592.205989,295.043363 L598.631732,299.564356 L614.704999,277.785079 L598.631732,256 Z M723.631732,256 L717.205989,260.520994 L727.328761,274.244472 L662.477276,274.244472 L662.477276,281.979277 L726.843613,281.979277 L717.205989,295.043363 L723.631732,299.564356 L739.704999,277.785079 L723.631732,256 Z M642.506979,332 L634.506979,332 L634.506979,224 L642.506979,224 L642.506979,332 Z" id="Icon" fill="#FFFFFF" fill-rule="nonzero"></path>
    </g>
</svg>