<?xml version="1.0" encoding="UTF-8"?>
<svg width="1280px" height="640px" viewBox="0 0 1280 640" version="1.1" xmlns="http://www.w3.org/2000/svg" xmlns:xlink="http://www.w3.org/1999/xlink">
    <title>Private Relay Logo / 1280x640 / light</title>
    <g id="Private-Relay-Logo-/-1280x640-/-light" stroke="none" stroke-width="1" fill="none" fill-rule="evenodd">
        <rect fill="#FFFFFF" x="0" y="0" width="1280" height="640"></rect>
        <path d="M666.325128,280 L669.653333,282.490656 L664.410256,290.051045 L698,290.051045 L698,294.31222 L664.661538,294.31222 L669.653333,301.509344 L666.325128,304 L658,292.001598 L666.325128,280 Z M590.325128,280 L593.653333,282.490656 L588.410256,290.051045 L622,290.051045 L622,294.31222 L588.661538,294.31222 L593.653333,301.509344 L590.325128,304 L582,292.001598 L590.325128,280 Z M642,320 L638,320 L638,264 L642,264 L642,320 Z" id="Shape" fill="#111111" fill-rule="nonzero" transform="translate(640.000000, 292.000000) scale(-1, 1) translate(-640.000000, -292.000000) "></path>
        <text id="Private-Relay" font-family="Inter-ExtraBold, Inter" font-size="50" font-weight="600" fill="#111111">
            <tspan x="479.204545" y="376">Private Relay</tspan>
        </text>
    </g>
</svg>