<?xml version="1.0" encoding="UTF-8"?>
<svg width="512px" height="256px" viewBox="0 0 512 256" version="1.1" xmlns="http://www.w3.org/2000/svg" xmlns:xlink="http://www.w3.org/1999/xlink">
    <title>Private Relay</title>
    <g id="Private-Relay-Logo" stroke="none" stroke-width="1" fill="none" fill-rule="evenodd">
        <rect fill="#FFFFFF" x="0" y="0" width="512" height="256"></rect>
        <path d="M64.7727132,210 L64.7727132,195.545468 L72.4090695,195.545468 C83.0681503,195.545468 89.7272348,189.227293 89.7272348,179.568211 C89.7272348,170.000038 83.2045138,163.45459 72.7499783,163.45459 L53.5227239,163.45459 L53.5227239,210 L64.7727132,210 Z M70.3181624,186.68184 L64.7727132,186.68184 L64.7727132,172.522763 L70.3181624,172.522763 C75.3636122,172.522763 78.0681551,175.250033 78.0681551,179.568211 C78.0681551,183.863661 75.3636122,186.68184 70.3181624,186.68184 Z M106.363622,210 L106.363622,191.045473 C106.363622,186.886386 109.318165,184.090934 113.295434,184.090934 C114.613615,184.090934 116.590885,184.318206 117.659066,184.681842 L117.659066,175.022761 C116.727249,174.772761 115.568159,174.61367 114.545433,174.61367 C110.727255,174.61367 107.681803,176.840941 106.409077,181.454573 L106.045441,181.454573 L106.045441,175.090942 L95.2499966,175.090942 L95.2499966,210 L106.363622,210 Z M127.772719,171.022764 C130.931806,171.022764 133.477259,168.636403 133.477259,165.704588 C133.477259,162.772772 130.931806,160.409138 127.772719,160.409138 C124.636358,160.409138 122.068179,162.772772 122.068179,165.704588 C122.068179,168.636403 124.636358,171.022764 127.772719,171.022764 Z M133.318168,210 L133.318168,175.090942 L122.204542,175.090942 L122.204542,210 L133.318168,210 Z M162.249976,210 L174.227237,175.090942 L162.522703,175.090942 L156.068163,199.136374 L155.704527,199.136374 L149.272715,175.090942 L137.568181,175.090942 L149.522715,210 L162.249976,210 Z M187.363624,210.590909 C192.227255,210.590909 195.590889,208.704547 197.499978,205.136368 L197.772705,205.136368 L197.772705,210 L208.22724,210 L208.22724,186.27275 C208.22724,178.886393 201.659065,174.636397 192.772709,174.636397 C183.386362,174.636397 178.068178,179.363666 177.181815,185.727296 L187.431805,186.090932 C187.909078,183.863661 189.749985,182.500026 192.6818,182.500026 C195.40907,182.500026 197.136342,183.818207 197.136342,186.159114 L197.136342,186.27275 C197.136342,188.409111 194.818162,188.863657 188.863622,189.386383 C181.795447,189.977292 175.886362,192.590926 175.886362,200.318191 C175.886362,207.227275 180.681812,210.590909 187.363624,210.590909 Z M190.795439,203.318188 C188.227259,203.318188 186.409079,202.090917 186.409079,199.772742 C186.409079,197.522739 188.181805,196.159104 191.340893,195.681832 C193.409079,195.386378 195.954525,194.931833 197.204523,194.272742 L197.204523,197.590921 C197.204523,201.000009 194.34089,203.318188 190.795439,203.318188 Z M229.659074,210.5 C232.340889,210.363636 234.272706,209.818182 235.340886,209.5 L233.65907,201.477281 C233.181797,201.590917 232.068162,201.81819 231.227254,201.81819 C229.431801,201.81819 228.409075,201.090918 228.409075,199.022738 L228.409075,183.272753 L234.704523,183.272753 L234.704523,175.090942 L228.409075,175.090942 L228.409075,166.727314 L217.295449,166.727314 L217.295449,175.090942 L212.681817,175.090942 L212.681817,183.272753 L217.295449,183.272753 L217.295449,200.250009 C217.227267,207.318184 221.818172,210.863636 229.659074,210.5 Z M256.34089,210.65909 C265.499972,210.65909 271.522694,206.227276 272.79542,199.363647 L262.590884,199.068192 C261.727249,201.386372 259.454524,202.636371 256.545435,202.636371 C252.272712,202.636371 249.636351,199.795464 249.636351,195.522741 L249.636351,195.227287 L272.909056,195.227287 L272.909056,192.454562 C272.909056,180.954573 265.909063,174.636397 255.999981,174.636397 C245.454537,174.636397 238.681816,181.863663 238.681816,192.681835 C238.681816,203.863642 245.363628,210.65909 256.34089,210.65909 Z M262.568157,188.772748 L249.636351,188.772748 C249.795442,185.295478 252.545439,182.659117 256.227254,182.659117 C259.886341,182.659117 262.522702,185.204569 262.568157,188.772748 Z M303.63635,210 L303.63635,194.068197 L309.409071,194.068197 L317.909063,210 L330.181779,210 L320.522697,192.272744 C325.636329,189.954565 328.590871,185.386387 328.590871,178.954575 C328.590871,169.386402 322.06815,163.45459 311.613615,163.45459 L292.38636,163.45459 L292.38636,210 L303.63635,210 Z M309.181799,185.204569 L303.63635,185.204569 L303.63635,172.522763 L309.181799,172.522763 C314.227249,172.522763 316.931791,174.636397 316.931791,178.954575 C316.931791,183.272753 314.227249,185.204569 309.181799,185.204569 Z M350.409072,210.65909 C359.568154,210.65909 365.590876,206.227276 366.863602,199.363647 L356.659066,199.068192 C355.79543,201.386372 353.522705,202.636371 350.613617,202.636371 C346.340894,202.636371 343.704533,199.795464 343.704533,195.522741 L343.704533,195.227287 L366.977238,195.227287 L366.977238,192.454562 C366.977238,180.954573 359.977245,174.636397 350.068163,174.636397 C339.522719,174.636397 332.749998,181.863663 332.749998,192.681835 C332.749998,203.863642 339.43181,210.65909 350.409072,210.65909 Z M356.636339,188.772748 L343.704533,188.772748 C343.863624,185.295478 346.613621,182.659117 350.295436,182.659117 C353.954523,182.659117 356.590884,185.204569 356.636339,188.772748 Z M383.795441,210 L383.795441,163.45459 L372.681815,163.45459 L372.681815,210 L383.795441,210 Z M400.681805,210.590909 C405.545437,210.590909 408.90907,208.704547 410.818159,205.136368 L411.090886,205.136368 L411.090886,210 L421.545422,210 L421.545422,186.27275 C421.545422,178.886393 414.977246,174.636397 406.090891,174.636397 C396.704544,174.636397 391.38636,179.363666 390.499997,185.727296 L400.749987,186.090932 C401.227259,183.863661 403.068167,182.500026 405.999982,182.500026 C408.727252,182.500026 410.454523,183.818207 410.454523,186.159114 L410.454523,186.27275 C410.454523,188.409111 408.136344,188.863657 402.181804,189.386383 C395.113629,189.977292 389.204544,192.590926 389.204544,200.318191 C389.204544,207.227275 393.999994,210.590909 400.681805,210.590909 Z M404.11362,203.318188 C401.545441,203.318188 399.727261,202.090917 399.727261,199.772742 C399.727261,197.522739 401.499986,196.159104 404.659074,195.681832 C406.727261,195.386378 409.272706,194.931833 410.522705,194.272742 L410.522705,197.590921 C410.522705,201.000009 407.659072,203.318188 404.11362,203.318188 Z M433.840899,223.090897 C441.840892,223.090897 445.818161,219.045446 447.749977,213.340906 L460.909055,175.11367 L449.204521,175.090942 L442.6818,200.00001 L442.318164,200.00001 L435.886352,175.090942 L424.249999,175.090942 L436.659078,211.272726 L436.227261,212.31818 C435.15908,214.931813 432.749999,214.977268 429.477267,213.909087 L427.022724,221.977261 C428.704541,222.659079 431.181811,223.090897 433.840899,223.090897 Z" id="PrivateRelay" fill="#000000" fill-rule="nonzero"></path>
        <path d="M216.154455,63 L209.728713,67.5209936 L219.851485,81.2444717 L155,81.2444717 L155,88.9792769 L219.366337,88.9792769 L209.728713,102.043363 L216.154455,106.564356 L232.227723,84.7850788 L216.154455,63 Z M341.154455,63 L334.728713,67.5209936 L344.851485,81.2444717 L280,81.2444717 L280,88.9792769 L344.366337,88.9792769 L334.728713,102.043363 L341.154455,106.564356 L357.227723,84.7850788 L341.154455,63 Z M260.029703,139 L252.029703,139 L252.029703,31 L260.029703,31 L260.029703,139 Z" id="Icon" fill="#000000" fill-rule="nonzero"></path>
    </g>
</svg>
